<?xml version="1.0" encoding="utf-8"?>
<!-- Generator: Adobe Illustrator 23.0.2, SVG Export Plug-In . SVG Version: 6.00 Build 0)  -->
<svg version="1.1" id="Layer_1" xmlns="http://www.w3.org/2000/svg" xmlns:xlink="http://www.w3.org/1999/xlink" x="0px" y="0px"
	 viewBox="0 0 250 250" style="enable-background:new 0 0 250 250;" xml:space="preserve">
<style type="text/css">
	.st0{fill-rule:evenodd;clip-rule:evenodd;fill:#9AB8C1;}
	.st1{fill:none;stroke:#939393;stroke-width:0.5;stroke-linejoin:round;stroke-miterlimit:10;}
	.st2{fill:#FFFFFF;}
	.st3{font-family:'Roboto-Regular';}
	.st4{font-size:18.3521px;}
	.st5{fill:#007F00;}
	.st6{fill:#004C99;}
	.st7{fill:none;stroke:#000000;stroke-width:2;stroke-linecap:round;stroke-linejoin:round;stroke-miterlimit:10;}
	.st8{fill:#939393;stroke:#000000;stroke-width:0.5;stroke-miterlimit:10;}
	
		.st9{fill:none;stroke:#004C99;stroke-width:0.5;stroke-linecap:round;stroke-linejoin:round;stroke-miterlimit:10;stroke-dasharray:30,5,10,5;}
	
		.st10{fill:none;stroke:#007F00;stroke-width:0.5;stroke-linecap:round;stroke-linejoin:round;stroke-miterlimit:10;stroke-dasharray:30,5,10,5;}
	.st11{fill:none;stroke:#939393;stroke-miterlimit:10;}
</style>
<g id="МТЛ.ЗАЛИВКА">
	<g id="HATCH">
		<polygon class="st0" points="89.5,64.2 89.5,202.6 89.5,215 164.6,215 164.6,202.6 97.1,202.6 97.1,64.2 164.6,64.2 164.6,51.8 
			89.5,51.8 		"/>
	</g>
</g>
<g id="СТЛ.РАЗМЕРЫ">
	<g id="LINE_6_">
		<line class="st1" x1="169.4" y1="51.8" x2="196.2" y2="51.8"/>
	</g>
	<g id="LINE_7_">
		<line class="st1" x1="169.4" y1="64.2" x2="196.2" y2="64.2"/>
	</g>
	<g id="LINE_8_">
		<line class="st1" x1="192.1" y1="47.7" x2="192.1" y2="68.8"/>
	</g>
	<g id="LINE">
		<line class="st1" x1="84.6" y1="215" x2="51.7" y2="215"/>
	</g>
	<g id="LINE_1_">
		<line class="st1" x1="84.6" y1="51.8" x2="51.7" y2="51.8"/>
	</g>
	<g id="LINE_2_">
		<line class="st1" x1="55.7" y1="219.1" x2="55.7" y2="47.7"/>
	</g>
	<g id="LINE_3_">
		<line class="st1" x1="89.5" y1="46.9" x2="89.5" y2="16.9"/>
	</g>
	<g id="LINE_4_">
		<line class="st1" x1="164.6" y1="46.9" x2="164.6" y2="16.9"/>
	</g>
	<g id="LINE_5_">
		<line class="st1" x1="85.4" y1="21" x2="168.6" y2="21"/>
	</g>
	<g id="MTEXT">
		<rect x="42.7" y="128.7" class="st2" width="11.8" height="9.5"/>
		<text transform="matrix(9.999998e-17 -1 1 9.999998e-17 53.452 138.3245)" class="st3 st4">H</text>
	</g>
	<g id="MTEXT_1_">
		<rect x="122.7" y="7.9" class="st2" width="8.6" height="11.8"/>
		<text transform="matrix(1 0 0 1 122.5408 18.7098)" class="st3 st4">B</text>
	</g>
	<g id="MTEXT_2_">
		<rect x="197.2" y="50.7" class="st2" width="11.2" height="12.6"/>
		<text transform="matrix(1 0 0 1 198.1092 63.9358)" class="st3 st4">tf</text>
	</g>
	<g id="LINE_9_">
		<line class="st1" x1="64.8" y1="170.2" x2="102.4" y2="170.2"/>
	</g>
	<g id="MTEXT_3_">
		<rect x="66.4" y="157" class="st2" width="16.4" height="11.9"/>
		<text transform="matrix(1 0 0 1 63.9998 167.8162)" class="st3 st4">tw</text>
	</g>
	<g id="MTEXT_4_">
		<rect x="182.2" y="127.6" class="st2" width="10" height="11.8"/>
		<text transform="matrix(1 0 0 1 183.0418 138.325)" class="st5 st3 st4">Y</text>
	</g>
	<g id="MTEXT_5_">
		<rect x="108.4" y="25.3" class="st2" width="9.1" height="11.8"/>
		<text transform="matrix(1 0 0 1 108.8255 39.9256)" class="st6 st3 st4">Z</text>
	</g>
	<g id="MTEXT_6_">
		<rect x="62.8" y="127.6" class="st2" width="10" height="11.8"/>
		<text transform="matrix(1 0 0 1 62.6663 138.325)" class="st5 st3 st4">Y</text>
	</g>
	<g id="MTEXT_7_">
		<rect x="108.4" y="228.6" class="st2" width="9.1" height="11.8"/>
		<text transform="matrix(1 0 0 1 108.8255 238.409)" class="st6 st3 st4">Z</text>
	</g>
</g>
<g id="_x30_">
	<g id="LWPOLYLINE">
		<polygon class="st7" points="89.5,64.2 89.5,202.6 89.5,215 164.6,215 164.6,202.6 97.1,202.6 97.1,64.2 164.6,64.2 164.6,51.8 
			89.5,51.8 		"/>
	</g>
	<g id="LWPOLYLINE_1_">
		<circle class="st8" cx="55.7" cy="215" r="2.4"/>
	</g>
	<g id="LWPOLYLINE_2_">
		<circle class="st8" cx="55.7" cy="51.8" r="2.4"/>
	</g>
	<g id="LWPOLYLINE_3_">
		<circle class="st8" cx="89.5" cy="21" r="2.4"/>
	</g>
	<g id="LWPOLYLINE_4_">
		<circle class="st8" cx="164.6" cy="21" r="2.4"/>
	</g>
	<g id="LWPOLYLINE_5_">
		<circle class="st8" cx="192.1" cy="51.8" r="2.4"/>
	</g>
	<g id="LWPOLYLINE_6_">
		<circle class="st8" cx="192.1" cy="64.2" r="2.4"/>
	</g>
	<g id="LWPOLYLINE_7_">
		<circle class="st8" cx="89.5" cy="170.2" r="2.4"/>
	</g>
	<g id="LWPOLYLINE_8_">
		<circle class="st8" cx="97.1" cy="170.2" r="2.4"/>
	</g>
</g>
<g id="СТЛ.ОСИ">
	<g id="LINE_10_">
		<line class="st9" x1="113" y1="43.4" x2="113" y2="221"/>
	</g>
	<g id="LINE_11_">
		<line class="st10" x1="74.3" y1="133.4" x2="179.2" y2="133.4"/>
	</g>
</g>
<path class="st11" d="M239,247H11c-4.4,0-8-3.6-8-8V11c0-4.4,3.6-8,8-8h228c4.4,0,8,3.6,8,8v228C247,243.4,243.4,247,239,247z"/>
</svg>
